<svg width="80" height="21" fill="none" xmlns="http://www.w3.org/2000/svg"><path d="M11.896 9.534c-.025-2.21 1.808-3.288 1.896-3.336-1.037-1.512-2.644-1.72-3.207-1.737-1.35-.144-2.661.804-3.345.804-.7 0-1.76-.796-2.902-.772-1.48.033-2.846.885-3.601 2.203-1.552 2.693-.394 6.649 1.093 8.827.748 1.07 1.616 2.26 2.757 2.211 1.118-.048 1.536-.707 2.878-.707 1.335 0 1.72.707 2.887.683 1.197-.016 1.953-1.07 2.669-2.146a9.026 9.026 0 0 0 1.222-2.485c-.033-.016-2.324-.892-2.348-3.545zM9.7 3.031c.602-.747 1.012-1.768.892-2.805-.868.04-1.954.602-2.58 1.334-.555.643-1.046 1.704-.917 2.701.973.073 1.977-.49 2.605-1.23zm16.287 12.002h-3.803l-.916 2.701H19.66l3.602-9.985h1.672l3.6 9.985h-1.64l-.907-2.701zm-3.41-1.246h3.016l-1.487-4.382h-.04l-1.488 4.382zm13.748.306c0 2.26-1.213 3.714-3.038 3.714-1.038 0-1.858-.466-2.292-1.27h-.032v3.602h-1.495v-9.68h1.447v1.215h.024c.418-.78 1.302-1.287 2.315-1.287 1.85-.008 3.07 1.455 3.07 3.706zm-1.535 0c0-1.47-.764-2.444-1.921-2.444-1.142 0-1.914.99-1.914 2.444 0 1.463.772 2.452 1.914 2.452 1.157 0 1.92-.964 1.92-2.452zm9.542 0c0 2.26-1.213 3.714-3.038 3.714-1.037 0-1.857-.466-2.291-1.27h-.033v3.602h-1.495v-9.68h1.447v1.215h.024c.418-.78 1.303-1.287 2.316-1.287 1.857-.008 3.07 1.455 3.07 3.706zm-1.535 0c0-1.47-.764-2.444-1.921-2.444-1.142 0-1.914.99-1.914 2.444 0 1.463.772 2.452 1.914 2.452 1.165 0 1.92-.964 1.92-2.452zm6.833.86c.113.99 1.07 1.64 2.388 1.64 1.262 0 2.162-.65 2.162-1.543 0-.772-.546-1.238-1.84-1.56l-1.295-.305c-1.833-.443-2.685-1.303-2.685-2.694 0-1.72 1.503-2.902 3.634-2.902 2.106 0 3.553 1.182 3.6 2.902h-1.51c-.087-.996-.915-1.6-2.113-1.6s-2.026.612-2.026 1.496c0 .707.522 1.117 1.809 1.44l1.1.272c2.05.483 2.903 1.31 2.903 2.766 0 1.865-1.487 3.039-3.85 3.039-2.211 0-3.707-1.142-3.803-2.95h1.527l-.001-.001zm9.35-6.222v1.72h1.383v1.182H58.98v4.012c0 .627.273.916.884.916.153 0 .394-.024.49-.032v1.174c-.168.04-.498.072-.828.072-1.47 0-2.05-.554-2.05-1.961V11.64h-1.06v-1.18h1.06V8.74h1.504v-.009zm2.187 5.362c0-2.291 1.35-3.73 3.449-3.73 2.114 0 3.448 1.439 3.448 3.73 0 2.3-1.334 3.73-3.448 3.73-2.115 0-3.45-1.43-3.45-3.73zm5.386 0c0-1.568-.724-2.5-1.93-2.5-1.205 0-1.93.932-1.93 2.5 0 1.576.717 2.5 1.93 2.5 1.214 0 1.93-.924 1.93-2.5zm2.75-3.633h1.422v1.237h.033c.225-.82.892-1.318 1.752-1.318.217 0 .394.032.515.056v1.4c-.12-.05-.378-.09-.668-.09-.964 0-1.56.652-1.56 1.673v4.317h-1.495v-7.276.001zm10.612 5.136c-.201 1.319-1.488 2.227-3.136 2.227-2.114 0-3.433-1.415-3.433-3.698s1.319-3.762 3.369-3.762c2.01 0 3.28 1.383 3.28 3.593v.515h-5.137v.088c0 1.246.78 2.058 1.962 2.058.828 0 1.479-.394 1.68-1.02h1.415v-.001zm-5.05-2.17h3.643c-.032-1.118-.748-1.85-1.785-1.85s-1.777.748-1.857 1.85h-.001zM22.386.233c1.423 0 2.26.876 2.26 2.38 0 1.535-.83 2.411-2.26 2.411h-1.728V.233h1.728zm-.98 4.124h.908c1.005 0 1.584-.627 1.584-1.728 0-1.086-.587-1.713-1.584-1.713h-.91v3.441h.002zm4.083-1.133c0-1.166.652-1.882 1.713-1.882 1.053 0 1.704.708 1.704 1.882 0 1.173-.651 1.88-1.704 1.88-1.061 0-1.713-.707-1.713-1.88zm2.678 0c0-.788-.354-1.247-.973-1.247-.62 0-.973.459-.973 1.247 0 .787.346 1.246.973 1.246.619 0 .973-.459.973-1.246zm5.273 1.808h-.74l-.747-2.669h-.057l-.747 2.67h-.732l-.997-3.618h.724l.65 2.765h.057l.748-2.765h.683l.748 2.765h.056l.643-2.765h.716L33.44 5.032zm1.833-3.617h.69v.579h.058c.177-.402.538-.644 1.077-.644.804 0 1.254.483 1.254 1.343v2.348h-.715V2.87c0-.579-.25-.868-.78-.868s-.868.353-.868.916v2.114h-.716V1.415zM39.486 0h.715v5.033h-.715V0zm1.712 3.224c0-1.166.65-1.882 1.712-1.882 1.054 0 1.705.708 1.705 1.882 0 1.173-.651 1.88-1.705 1.88-1.07 0-1.712-.707-1.712-1.88zm2.677 0c0-.788-.353-1.247-.973-1.247s-.972.459-.972 1.247c0 .787.345 1.246.972 1.246.62 0 .973-.459.973-1.246zm1.487.787c0-.65.483-1.029 1.343-1.077l.98-.056v-.322c0-.386-.25-.595-.74-.595-.401 0-.674.145-.755.402h-.691c.072-.619.66-1.02 1.48-1.02.908 0 1.422.45 1.422 1.213v2.476h-.691v-.506h-.057c-.217.362-.61.57-1.085.57-.7-.007-1.206-.425-1.206-1.085zm2.324-.313V3.4l-.885.057c-.498.032-.723.2-.723.522 0 .33.28.515.667.515.547 0 .94-.346.94-.796zm1.656-.474c0-1.142.587-1.865 1.503-1.865.499 0 .917.233 1.11.635h.056V0h.715v5.033h-.683v-.571h-.056c-.217.394-.635.635-1.134.635-.932-.008-1.511-.732-1.511-1.873zm.73 0c0 .772.363 1.23.966 1.23s.973-.467.973-1.23c0-.756-.378-1.23-.973-1.23s-.965.466-.965 1.23zm5.604 0c0-1.166.652-1.882 1.713-1.882 1.053 0 1.704.708 1.704 1.882 0 1.173-.65 1.88-1.704 1.88-1.061 0-1.712-.707-1.712-1.88h-.001zm2.678 0c0-.788-.354-1.247-.973-1.247-.62 0-.973.459-.973 1.247 0 .787.346 1.246.973 1.246.62 0 .973-.459.973-1.246zm1.696-1.809h.692v.579h.056c.177-.402.539-.644 1.077-.644.804 0 1.255.483 1.255 1.343v2.348h-.716V2.87c0-.579-.25-.868-.78-.868s-.868.353-.868.916v2.114h-.716V1.415zm7.107-.9v.916h.788v.603h-.788v1.865c0 .378.153.547.515.547.112 0 .169-.008.273-.016v.595c-.112.016-.25.04-.386.04-.796 0-1.11-.282-1.11-.981v-2.05h-.57v-.603h.57V.515h.708zM68.917 0h.708v1.994h.057c.177-.402.554-.651 1.1-.651.773 0 1.247.49 1.247 1.35v2.34h-.715V2.87c0-.579-.266-.868-.772-.868-.587 0-.91.37-.91.916v2.115h-.714V0zm7.284 4.052c-.16.65-.74 1.045-1.568 1.045-1.037 0-1.672-.708-1.672-1.865 0-1.158.65-1.89 1.672-1.89 1.005 0 1.616.692 1.616 1.825v.25h-2.556v.04c.024.635.394 1.037.965 1.037.434 0 .73-.153.86-.442h.683zm-2.516-1.166h1.825c-.016-.57-.362-.94-.893-.94-.522.007-.892.377-.932.94z" fill="#757982"/></svg>