<svg width="89" height="21" fill="none" xmlns="http://www.w3.org/2000/svg"><path d="M27.1 2.225v.396h1.668l-.008.084c-.038.411-.175.739-.404.975-.35.35-.8.533-1.333.533a1.82 1.82 0 0 1-1.303-.525c-.365-.351-.548-.816-.548-1.372 0-.556.183-1.02.548-1.371.366-.35.8-.526 1.303-.526.518 0 .945.168 1.257.51l.297-.297a1.863 1.863 0 0 0-.64-.434A2.15 2.15 0 0 0 27.023 0c-.632 0-1.18.221-1.63.663-.45.442-.67.998-.67 1.646 0 .647.228 1.203.67 1.645.442.442.99.663 1.63.663.663 0 1.211-.221 1.623-.655.366-.366.548-.861.548-1.47 0-.084-.007-.176-.022-.267H27.1zm3.527.281H32.5V2.11h-1.874V.51h2.08V.099h-2.515v4.418h2.514v-.403h-2.08V2.506h.002zm4.121 2.011h.435V.51h1.272V.099h-2.987V.51h1.28v4.007zM39.32.1h-.435v4.418h.434V.1l.001-.001zm2.17 4.418h.435V.51h1.272V.099h-2.986V.51h1.28l-.001 4.007zM47.547 0c-.64 0-1.188.229-1.622.67a2.265 2.265 0 0 0-.655 1.638c0 .64.22 1.197.655 1.638.434.442.975.67 1.623.67.64 0 1.188-.228 1.622-.67.434-.44.655-.998.655-1.638a2.275 2.275 0 0 0-1.397-2.14A2.215 2.215 0 0 0 47.547 0zm1.296 3.68c-.35.358-.785.533-1.296.533a1.77 1.77 0 0 1-1.295-.533c-.35-.358-.525-.815-.525-1.364 0-.548.175-1.006.525-1.364.35-.358.785-.533 1.295-.533.51 0 .945.183 1.296.533.35.358.533.816.533 1.364 0 .55-.183 1.006-.533 1.364zm4.769-.024L51.395.1h-.602v4.418h.442V1.752l-.03-.96h.144l.023.038 2.3 3.687h.496V.1h-.434v2.605l.03.952-.152-.001zm-8.556 7.612c-1.79 0-3.253 1.364-3.253 3.238 0 1.866 1.463 3.238 3.253 3.238s3.253-1.372 3.253-3.238c0-1.882-1.462-3.238-3.253-3.238zm0 5.203c-.983 0-1.828-.807-1.828-1.965 0-1.166.845-1.966 1.828-1.966.983 0 1.829.8 1.829 1.966 0 1.15-.854 1.965-1.829 1.965zm-7.1-5.203c-1.79 0-3.254 1.364-3.254 3.238 0 1.866 1.463 3.238 3.254 3.238 1.79 0 3.253-1.372 3.253-3.238 0-1.882-1.463-3.238-3.253-3.238zm0 5.203c-.983 0-1.829-.807-1.829-1.965 0-1.166.846-1.966 1.829-1.966.982 0 1.828.8 1.828 1.966 0 1.15-.846 1.965-1.828 1.965zm-8.442-4.213v1.372h3.292c-.1.769-.359 1.34-.747 1.729-.48.48-1.227 1.006-2.537 1.006-2.027 0-3.611-1.63-3.611-3.657s1.584-3.657 3.61-3.657c1.09 0 1.89.426 2.477.983l.967-.968c-.822-.785-1.912-1.387-3.45-1.387-2.774 0-5.105 2.255-5.105 5.036 0 2.773 2.331 5.036 5.104 5.036 1.501 0 2.629-.487 3.512-1.41.907-.906 1.189-2.186 1.189-3.214 0-.32-.023-.617-.076-.861h-4.625v-.008zm34.52 1.067c-.267-.724-1.09-2.065-2.773-2.065-1.669 0-3.055 1.31-3.055 3.238 0 1.813 1.371 3.238 3.215 3.238a3.21 3.21 0 0 0 2.697-1.432l-1.105-.74c-.366.542-.868.9-1.592.9-.724 0-1.242-.328-1.57-.983l4.335-1.79-.152-.366zm-4.419 1.082c-.038-1.25.968-1.89 1.691-1.89.564 0 1.044.282 1.204.686l-2.895 1.204zm-3.52 3.139h1.425V8.022h-1.425v9.524zm-2.33-5.554h-.054c-.32-.381-.93-.724-1.707-.724-1.622 0-3.108 1.425-3.108 3.253 0 1.813 1.486 3.23 3.108 3.23.77 0 1.387-.343 1.707-.739h.046v.465c0 1.242-.663 1.905-1.73 1.905-.868 0-1.41-.625-1.63-1.15l-1.242.517c.358.861 1.303 1.913 2.872 1.913 1.669 0 3.078-.983 3.078-3.376v-5.82h-1.348v.526h.008zm-1.639 4.48c-.983 0-1.805-.824-1.805-1.951 0-1.143.822-1.973 1.805-1.973.968 0 1.73.838 1.73 1.973.007 1.127-.755 1.951-1.73 1.951zm18.582-8.45h-3.406v9.524h1.425v-3.604h1.989c1.577 0 3.123-1.143 3.123-2.956s-1.562-2.964-3.131-2.964zm.03 4.594H68.72V9.348h2.02c1.066 0 1.668.884 1.668 1.63 0 .74-.603 1.638-1.67 1.638zm8.792-1.371c-1.028 0-2.095.457-2.537 1.455l1.265.526c.267-.526.77-.701 1.295-.701.731 0 1.486.442 1.493 1.226v.1a3.182 3.182 0 0 0-1.485-.366c-1.364 0-2.743.746-2.743 2.14 0 1.273 1.112 2.096 2.362 2.096.952 0 1.485-.427 1.813-.93h.046v.74h1.37v-3.65c.009-1.691-1.256-2.636-2.879-2.636zm-.175 5.219c-.465 0-1.112-.236-1.112-.808 0-.731.807-1.013 1.508-1.013.625 0 .922.137 1.295.32a1.72 1.72 0 0 1-1.691 1.5v.001zm8.06-5.006l-1.63 4.13h-.046l-1.691-4.13h-1.531l2.537 5.775-1.448 3.207h1.486L89 11.459l-1.585-.001zm-12.799 6.088h1.425V8.022h-1.425v9.524zM.488.731c2.987 2.989 5.976 5.975 8.967 8.96a4967.768 4967.768 0 0 0-8.967 8.967c-.298-.32-.442-.74-.473-1.196C0 17.378 0 17.287 0 17.202v-15c0-.465.084-.9.35-1.288.046-.068.1-.13.138-.183zm.906 18.537l8.815-8.815 3.123 3.124c-.045.03-.114.068-.182.106-3.36 1.798-6.72 3.596-10.08 5.402-.503.274-1.02.38-1.577.22a.53.53 0 0 1-.099-.037zm11.939-13.44a1188.76 1188.76 0 0 0-3.124 3.132A9640.75 9640.75 0 0 0 1.387.13c.137-.03.274-.069.419-.092.48-.053.914.092 1.34.313 2.675 1.44 5.349 2.864 8.023 4.296.663.359 1.325.709 1.988 1.067.061.038.13.084.176.114zm1.005.518c1.006.541 2.057 1.067 3.07 1.67 1.258.745 1.258 2.619 0 3.374-.975.586-2.003 1.09-3.009 1.622-.053.03-.16.016-.198-.022-1.09-1.082-2.171-2.172-3.26-3.26-.008-.016-.008-.009 0 0 1.127-1.121 2.24-2.233 3.397-3.384z" fill="#757982"/></svg>