<svg width="19" height="17" fill="none" xmlns="http://www.w3.org/2000/svg"><path d="M10.803 16.395a.925.925 0 0 1-.63-.256.906.906 0 0 1 0-1.264l5.872-5.917c.793-.806 1.207-1.869 1.207-3.004a4.105 4.105 0 0 0-1.207-2.931c-1.567-1.594-4.341-1.594-5.89 0l-7.658 7.785a.87.87 0 0 1-1.243 0 .906.906 0 0 1 0-1.264l7.657-7.786A5.81 5.81 0 0 1 13.091 0a5.78 5.78 0 0 1 4.18 1.758c1.098 1.1 1.711 2.583 1.729 4.196 0 1.63-.595 3.15-1.73 4.286l-5.873 5.935a.91.91 0 0 1-.594.22z" fill="#333"/><path d="M4.299 17h-.036a4.222 4.222 0 0 1-3.009-1.3 4.403 4.403 0 0 1 .018-6.174.87.87 0 0 1 1.243 0 .906.906 0 0 1 0 1.264 2.63 2.63 0 0 0 0 3.664 2.493 2.493 0 0 0 1.766.769c.72.018 1.351-.275 1.838-.77l7.008-7.126a.87.87 0 0 1 1.243 0 .906.906 0 0 1 0 1.264l-7.008 7.127A4.316 4.316 0 0 1 4.299 17z" fill="#333"/><path d="M7.956 9.636a.882.882 0 0 1-.612-.257.906.906 0 0 1 0-1.264l3.26-3.316c1.01-1.025 2.757-1.025 3.766 0 .486.458.757 1.118.775 1.832a2.677 2.677 0 0 1-.775 1.942.87.87 0 0 1-1.243 0 .906.906 0 0 1 0-1.264.907.907 0 0 0 .27-.66.77.77 0 0 0-.252-.586c-.378-.384-.973-.366-1.297-.018L8.568 9.38a.882.882 0 0 1-.612.257z" fill="#333"/></svg>