<svg width="80" height="21" viewBox="0 0 80 21" fill="none" xmlns="http://www.w3.org/2000/svg">
<path d="M11.8959 9.534C11.8709 7.324 13.7039 6.246 13.7919 6.198C12.7549 4.686 11.1479 4.478 10.5849 4.461C9.23489 4.317 7.92389 5.265 7.23989 5.265C6.54089 5.265 5.47989 4.469 4.33789 4.493C2.85889 4.526 1.49189 5.378 0.73689 6.696C-0.81511 9.389 0.34289 13.345 1.82989 15.523C2.57789 16.593 3.44589 17.783 4.58689 17.734C5.70489 17.686 6.12289 17.027 7.46489 17.027C8.79989 17.027 9.18489 17.734 10.3519 17.71C11.5489 17.694 12.3049 16.64 13.0209 15.564C13.5536 14.8035 13.9658 13.9653 14.2429 13.079C14.2099 13.063 11.9189 12.187 11.8949 9.534H11.8959ZM9.70089 3.031C10.3029 2.284 10.7129 1.263 10.5929 0.226C9.72489 0.266 8.63889 0.828 8.01289 1.56C7.45789 2.203 6.96689 3.264 7.09589 4.261C8.06889 4.334 9.07289 3.771 9.70089 3.031ZM25.9879 15.033H22.1849L21.2689 17.734H19.6609L23.2629 7.749H24.9349L28.5359 17.734H26.8959L25.9879 15.033ZM22.5789 13.787H25.5939L24.1069 9.405H24.0669L22.5789 13.787ZM36.3259 14.093C36.3259 16.353 35.1129 17.807 33.2879 17.807C32.2499 17.807 31.4299 17.341 30.9959 16.537H30.9639V20.139H29.4689V10.459H30.9159V11.674H30.9399C31.3579 10.894 32.2419 10.387 33.2549 10.387C35.1049 10.379 36.3259 11.842 36.3259 14.093ZM34.7909 14.093C34.7909 12.623 34.0269 11.649 32.8699 11.649C31.7279 11.649 30.9559 12.639 30.9559 14.093C30.9559 15.556 31.7279 16.545 32.8699 16.545C34.0269 16.545 34.7899 15.581 34.7899 14.093H34.7909ZM44.3329 14.093C44.3329 16.353 43.1199 17.807 41.2949 17.807C40.2579 17.807 39.4379 17.341 39.0039 16.537H38.9709V20.139H37.4759V10.459H38.9229V11.674H38.9469C39.3649 10.894 40.2499 10.387 41.2629 10.387C43.1199 10.379 44.3329 11.842 44.3329 14.093ZM42.7979 14.093C42.7979 12.623 42.0339 11.649 40.8769 11.649C39.7349 11.649 38.9629 12.639 38.9629 14.093C38.9629 15.556 39.7349 16.545 40.8769 16.545C42.0419 16.545 42.7979 15.581 42.7979 14.093ZM49.6309 14.953C49.7439 15.943 50.7009 16.593 52.0189 16.593C53.2809 16.593 54.1809 15.943 54.1809 15.05C54.1809 14.278 53.6349 13.812 52.3409 13.49L51.0459 13.185C49.2129 12.742 48.3609 11.882 48.3609 10.491C48.3609 8.771 49.8639 7.589 51.9949 7.589C54.1009 7.589 55.5479 8.771 55.5959 10.491H54.0859C53.9979 9.495 53.1699 8.891 51.9719 8.891C50.7739 8.891 49.9459 9.503 49.9459 10.387C49.9459 11.094 50.4679 11.504 51.7549 11.827L52.8559 12.099C54.9059 12.582 55.7579 13.409 55.7579 14.865C55.7579 16.73 54.2709 17.904 51.9079 17.904C49.6969 17.904 48.2009 16.762 48.1049 14.954H49.6319L49.6309 14.953ZM58.9809 8.731V10.451H60.3639V11.633H58.9809V15.645C58.9809 16.272 59.2539 16.561 59.8649 16.561C60.0179 16.561 60.2589 16.537 60.3549 16.529V17.703C60.1869 17.743 59.8569 17.775 59.5269 17.775C58.0569 17.775 57.4769 17.221 57.4769 15.814V11.64H56.4169V10.46H57.4769V8.74H58.9809V8.732V8.731ZM61.1679 14.093C61.1679 11.802 62.5179 10.363 64.6169 10.363C66.7309 10.363 68.0649 11.802 68.0649 14.093C68.0649 16.393 66.7309 17.823 64.6169 17.823C62.5019 17.823 61.1669 16.393 61.1669 14.093H61.1679ZM66.5539 14.093C66.5539 12.525 65.8299 11.593 64.6239 11.593C63.4189 11.593 62.6949 12.525 62.6949 14.093C62.6949 15.669 63.4109 16.593 64.6249 16.593C65.8379 16.593 66.5539 15.669 66.5539 14.093ZM69.3039 10.46H70.7259V11.697H70.7589C70.9839 10.877 71.6509 10.379 72.5109 10.379C72.7279 10.379 72.9049 10.411 73.0259 10.435V11.835C72.9059 11.785 72.6479 11.745 72.3579 11.745C71.3939 11.745 70.7979 12.397 70.7979 13.418V17.735H69.3029V10.459L69.3039 10.46ZM79.9159 15.596C79.7149 16.915 78.4279 17.823 76.7799 17.823C74.6659 17.823 73.3469 16.408 73.3469 14.125C73.3469 11.842 74.6659 10.363 76.7159 10.363C78.7259 10.363 79.9959 11.746 79.9959 13.956V14.471H74.8589V14.559C74.8589 15.805 75.6389 16.617 76.8209 16.617C77.6489 16.617 78.2999 16.223 78.5009 15.597H79.9159V15.596ZM74.8659 13.426H78.5089C78.4769 12.308 77.7609 11.576 76.7239 11.576C75.6869 11.576 74.9469 12.324 74.8669 13.426H74.8659ZM22.3859 0.233C23.8089 0.233 24.6459 1.109 24.6459 2.613C24.6459 4.148 23.8169 5.024 22.3859 5.024H20.6579V0.233H22.3859ZM21.4059 4.357H22.3139C23.3189 4.357 23.8979 3.73 23.8979 2.629C23.8979 1.543 23.3109 0.916 22.3139 0.916H21.4049V4.357H21.4059ZM25.4889 3.224C25.4889 2.058 26.1409 1.342 27.2019 1.342C28.2549 1.342 28.9059 2.05 28.9059 3.224C28.9059 4.397 28.2549 5.104 27.2019 5.104C26.1409 5.104 25.4889 4.397 25.4889 3.224ZM28.1669 3.224C28.1669 2.436 27.8129 1.977 27.1939 1.977C26.5739 1.977 26.2209 2.436 26.2209 3.224C26.2209 4.011 26.5669 4.47 27.1939 4.47C27.8129 4.47 28.1669 4.011 28.1669 3.224ZM33.4399 5.032H32.6999L31.9529 2.363H31.8959L31.1489 5.033H30.4169L29.4199 1.415H30.1439L30.7949 4.18H30.8509L31.5989 1.415H32.2819L33.0299 4.18H33.0859L33.7289 1.415H34.4449L33.4399 5.032ZM35.2729 1.415H35.9639V1.994H36.0209C36.1979 1.592 36.5589 1.35 37.0979 1.35C37.9019 1.35 38.3519 1.833 38.3519 2.693V5.041H37.6369V2.87C37.6369 2.291 37.3869 2.002 36.8569 2.002C36.3269 2.002 35.9889 2.355 35.9889 2.918V5.032H35.2729V1.415ZM39.4859 0H40.2009V5.033H39.4859V0ZM41.1979 3.224C41.1979 2.058 41.8489 1.342 42.9099 1.342C43.9639 1.342 44.6149 2.05 44.6149 3.224C44.6149 4.397 43.9639 5.104 42.9099 5.104C41.8409 5.104 41.1979 4.397 41.1979 3.224ZM43.8749 3.224C43.8749 2.436 43.5219 1.977 42.9019 1.977C42.2829 1.977 41.9299 2.436 41.9299 3.224C41.9299 4.011 42.2749 4.47 42.9019 4.47C43.5219 4.47 43.8749 4.011 43.8749 3.224ZM45.3619 4.011C45.3619 3.361 45.8449 2.982 46.7049 2.934L47.6849 2.878V2.556C47.6849 2.17 47.4359 1.961 46.9459 1.961C46.5439 1.961 46.2709 2.106 46.1899 2.363H45.4989C45.5709 1.744 46.1589 1.343 46.9789 1.343C47.8869 1.343 48.4009 1.793 48.4009 2.556V5.032H47.7099V4.526H47.6529C47.4359 4.888 47.0429 5.096 46.5679 5.096C45.8679 5.089 45.3619 4.671 45.3619 4.011ZM47.6859 3.698V3.4L46.8009 3.457C46.3029 3.489 46.0779 3.657 46.0779 3.979C46.0779 4.309 46.3589 4.494 46.7449 4.494C47.2919 4.494 47.6849 4.148 47.6849 3.698H47.6859ZM49.3419 3.224C49.3419 2.082 49.9289 1.359 50.8449 1.359C51.3439 1.359 51.7619 1.592 51.9549 1.994H52.0109V0H52.7259V5.033H52.0429V4.462H51.9869C51.7699 4.856 51.3519 5.097 50.8529 5.097C49.9209 5.089 49.3419 4.365 49.3419 3.224ZM50.0729 3.224C50.0729 3.996 50.4349 4.454 51.0379 4.454C51.6409 4.454 52.0109 3.987 52.0109 3.224C52.0109 2.468 51.6329 1.994 51.0379 1.994C50.4429 1.994 50.0729 2.46 50.0729 3.224ZM55.6759 3.224C55.6759 2.058 56.3279 1.342 57.3889 1.342C58.4419 1.342 59.0929 2.05 59.0929 3.224C59.0929 4.397 58.4429 5.104 57.3889 5.104C56.3279 5.104 55.6769 4.397 55.6769 3.224H55.6759ZM58.3539 3.224C58.3539 2.436 57.9999 1.977 57.3809 1.977C56.7619 1.977 56.4079 2.436 56.4079 3.224C56.4079 4.011 56.7539 4.47 57.3809 4.47C58.0009 4.47 58.3539 4.011 58.3539 3.224ZM60.0499 1.415H60.7419V1.994H60.7979C60.9749 1.592 61.3369 1.35 61.8749 1.35C62.6789 1.35 63.1299 1.833 63.1299 2.693V5.041H62.4139V2.87C62.4139 2.291 62.1639 2.002 61.6339 2.002C61.1039 2.002 60.7659 2.355 60.7659 2.918V5.032H60.0499V1.415ZM67.1569 0.515V1.431H67.9449V2.034H67.1569V3.899C67.1569 4.277 67.3099 4.446 67.6719 4.446C67.7839 4.446 67.8409 4.438 67.9449 4.43V5.025C67.8329 5.041 67.6949 5.065 67.5589 5.065C66.7629 5.065 66.4489 4.783 66.4489 4.084V2.034H65.8789V1.431H66.4489V0.515H67.1569ZM68.9179 0H69.6249V1.994H69.6819C69.8589 1.592 70.2359 1.343 70.7829 1.343C71.5549 1.343 72.0289 1.833 72.0289 2.693V5.033H71.3139V2.87C71.3139 2.291 71.0479 2.002 70.5419 2.002C69.9549 2.002 69.6329 2.372 69.6329 2.918V5.033H68.9179V0ZM76.2009 4.052C76.0409 4.702 75.4609 5.097 74.6329 5.097C73.5959 5.097 72.9609 4.389 72.9609 3.232C72.9609 2.074 73.6119 1.342 74.6329 1.342C75.6379 1.342 76.2489 2.034 76.2489 3.167V3.417H73.6929V3.457C73.7169 4.092 74.0869 4.494 74.6579 4.494C75.0919 4.494 75.3889 4.341 75.5179 4.052H76.2009ZM73.6849 2.886H75.5099C75.4939 2.316 75.1479 1.946 74.6169 1.946C74.0949 1.953 73.7249 2.323 73.6849 2.886Z" fill="#757982"/>
</svg>
