<svg width="89" height="21" viewBox="0 0 89 21" fill="none" xmlns="http://www.w3.org/2000/svg">
<path d="M27.1 2.22505V2.62105H28.768L28.76 2.70505C28.722 3.11605 28.585 3.44405 28.356 3.68005C28.006 4.03005 27.556 4.21305 27.023 4.21305C26.52 4.21305 26.086 4.03805 25.72 3.68805C25.355 3.33705 25.172 2.87205 25.172 2.31605C25.172 1.76005 25.355 1.29605 25.72 0.945048C26.086 0.595048 26.52 0.419048 27.023 0.419048C27.541 0.419048 27.968 0.587048 28.28 0.929048L28.577 0.632048C28.3964 0.444212 28.1783 0.296361 27.937 0.198048C27.6506 0.0657829 27.3385 -0.00181604 27.023 4.76041e-05C26.391 4.76041e-05 25.843 0.221048 25.393 0.663048C24.943 1.10505 24.723 1.66105 24.723 2.30905C24.723 2.95605 24.951 3.51205 25.393 3.95405C25.835 4.39605 26.383 4.61705 27.023 4.61705C27.686 4.61705 28.234 4.39605 28.646 3.96205C29.012 3.59605 29.194 3.10105 29.194 2.49205C29.194 2.40805 29.187 2.31605 29.172 2.22505H27.1ZM30.627 2.50605H32.5V2.11005H30.626V0.510048H32.706V0.0990476H30.191V4.51705H32.705V4.11405H30.625V2.50605H30.627ZM34.748 4.51705H35.183V0.510048H36.455V0.0990476H33.468V0.510048H34.748V4.51705ZM39.32 0.0990476H38.885V4.51705H39.319V0.100048L39.32 0.0990476ZM41.49 4.51705H41.925V0.510048H43.197V0.0990476H40.211V0.510048H41.491L41.49 4.51705ZM47.547 4.76041e-05C46.907 4.76041e-05 46.359 0.229048 45.925 0.670048C45.7118 0.88538 45.544 1.1413 45.4315 1.42266C45.319 1.70402 45.2641 2.00509 45.27 2.30805C45.27 2.94805 45.49 3.50505 45.925 3.94605C46.359 4.38805 46.9 4.61605 47.548 4.61605C48.188 4.61605 48.736 4.38805 49.17 3.94605C49.604 3.50505 49.825 2.94805 49.825 2.30805C49.825 1.66805 49.605 1.12005 49.17 0.670048C48.9595 0.453595 48.7069 0.282498 48.4278 0.167277C48.1486 0.0520556 47.8489 -0.00485404 47.547 4.76041e-05ZM48.843 3.68005C48.493 4.03805 48.058 4.21305 47.547 4.21305C47.3062 4.21696 47.0672 4.17171 46.8445 4.08007C46.6219 3.98842 46.4202 3.8523 46.252 3.68005C45.902 3.32205 45.727 2.86505 45.727 2.31605C45.727 1.76805 45.902 1.31005 46.252 0.952048C46.602 0.594048 47.037 0.419048 47.547 0.419048C48.057 0.419048 48.492 0.602048 48.843 0.952048C49.193 1.31005 49.376 1.76805 49.376 2.31605C49.376 2.86505 49.193 3.32205 48.843 3.68005ZM53.612 3.65605L51.395 0.100048H50.793V4.51805H51.235V1.75205L51.205 0.792048H51.349L51.372 0.830048L53.672 4.51705H54.168V0.100048H53.734V2.70505L53.764 3.65705L53.612 3.65605ZM45.056 11.268C43.266 11.268 41.803 12.632 41.803 14.506C41.803 16.372 43.266 17.744 45.056 17.744C46.846 17.744 48.309 16.372 48.309 14.506C48.309 12.624 46.847 11.268 45.056 11.268ZM45.056 16.471C44.073 16.471 43.228 15.664 43.228 14.506C43.228 13.34 44.073 12.54 45.056 12.54C46.039 12.54 46.885 13.34 46.885 14.506C46.885 15.656 46.031 16.471 45.056 16.471ZM37.956 11.268C36.166 11.268 34.702 12.632 34.702 14.506C34.702 16.372 36.165 17.744 37.956 17.744C39.746 17.744 41.209 16.372 41.209 14.506C41.209 12.624 39.746 11.268 37.956 11.268ZM37.956 16.471C36.973 16.471 36.127 15.664 36.127 14.506C36.127 13.34 36.973 12.54 37.956 12.54C38.938 12.54 39.784 13.34 39.784 14.506C39.784 15.656 38.938 16.471 37.956 16.471ZM29.514 12.258V13.63H32.806C32.706 14.399 32.447 14.97 32.059 15.359C31.579 15.839 30.832 16.365 29.522 16.365C27.495 16.365 25.911 14.735 25.911 12.708C25.911 10.681 27.495 9.05105 29.521 9.05105C30.611 9.05105 31.411 9.47705 31.998 10.034L32.965 9.06605C32.143 8.28105 31.053 7.67905 29.515 7.67905C26.741 7.67905 24.41 9.93405 24.41 12.715C24.41 15.488 26.741 17.751 29.514 17.751C31.015 17.751 32.143 17.264 33.026 16.341C33.933 15.435 34.215 14.155 34.215 13.127C34.215 12.807 34.192 12.51 34.139 12.266H29.514V12.258ZM64.034 13.325C63.767 12.601 62.944 11.26 61.261 11.26C59.592 11.26 58.206 12.57 58.206 14.498C58.206 16.311 59.577 17.736 61.421 17.736C61.9541 17.7401 62.4798 17.6113 62.9507 17.3613C63.4215 17.1113 63.8227 16.7479 64.118 16.304L63.013 15.564C62.647 16.106 62.145 16.464 61.421 16.464C60.697 16.464 60.179 16.136 59.851 15.481L64.186 13.691L64.034 13.325ZM59.615 14.407C59.577 13.157 60.583 12.517 61.306 12.517C61.87 12.517 62.35 12.799 62.51 13.203L59.615 14.407ZM56.095 17.546H57.52V8.02205H56.095V17.546ZM53.765 11.992H53.711C53.391 11.611 52.781 11.268 52.004 11.268C50.382 11.268 48.896 12.693 48.896 14.521C48.896 16.334 50.382 17.751 52.004 17.751C52.774 17.751 53.391 17.408 53.711 17.012H53.757V17.477C53.757 18.719 53.094 19.382 52.027 19.382C51.159 19.382 50.617 18.757 50.397 18.232L49.155 18.749C49.513 19.61 50.458 20.662 52.027 20.662C53.696 20.662 55.105 19.679 55.105 17.286V11.466H53.757V11.992H53.765ZM52.126 16.472C51.143 16.472 50.321 15.648 50.321 14.521C50.321 13.378 51.143 12.548 52.126 12.548C53.094 12.548 53.856 13.386 53.856 14.521C53.863 15.648 53.101 16.472 52.126 16.472ZM70.708 8.02205H67.302V17.546H68.727V13.942H70.716C72.293 13.942 73.839 12.799 73.839 10.986C73.839 9.17305 72.277 8.02205 70.708 8.02205ZM70.738 12.616H68.72V9.34805H70.74C71.806 9.34805 72.408 10.232 72.408 10.978C72.408 11.718 71.805 12.616 70.738 12.616ZM79.53 11.245C78.502 11.245 77.435 11.702 76.993 12.7L78.258 13.226C78.525 12.7 79.028 12.525 79.553 12.525C80.284 12.525 81.039 12.967 81.046 13.751V13.851C80.5881 13.6101 80.0784 13.4844 79.561 13.485C78.197 13.485 76.818 14.231 76.818 15.625C76.818 16.898 77.93 17.721 79.18 17.721C80.132 17.721 80.665 17.294 80.993 16.791H81.039V17.531H82.409V13.881C82.418 12.19 81.153 11.245 79.53 11.245ZM79.355 16.464C78.89 16.464 78.243 16.228 78.243 15.656C78.243 14.925 79.05 14.643 79.751 14.643C80.376 14.643 80.673 14.78 81.046 14.963C80.9929 15.3752 80.7923 15.7541 80.4815 16.0298C80.1707 16.3056 79.7705 16.4595 79.355 16.463V16.464ZM87.415 11.458L85.785 15.588H85.739L84.048 11.458H82.517L85.054 17.233L83.606 20.44H85.092L89 11.459L87.415 11.458ZM74.616 17.546H76.041V8.02205H74.616V17.546ZM0.488 0.731048C3.4751 3.71962 6.4641 6.70628 9.455 9.69105C6.4622 12.6762 3.47319 15.6652 0.488 18.658C0.19 18.338 0.046 17.918 0.015 17.462C0 17.378 0 17.287 0 17.202V2.20205C0 1.73705 0.084 1.30205 0.35 0.914048C0.396 0.846048 0.45 0.784048 0.488 0.731048ZM1.394 19.268L10.209 10.453L13.332 13.577C13.287 13.607 13.218 13.645 13.15 13.683C9.79 15.481 6.43 17.279 3.07 19.085C2.567 19.359 2.05 19.465 1.493 19.305C1.45885 19.296 1.42568 19.2836 1.394 19.268ZM13.333 5.82805C12.2897 6.87012 11.2484 7.91412 10.209 8.96005C7.27024 6.01481 4.32957 3.07148 1.387 0.130048C1.524 0.100048 1.661 0.0610477 1.806 0.0380477C2.286 -0.0149523 2.72 0.130048 3.146 0.351048C5.821 1.79105 8.495 3.21505 11.169 4.64705C11.832 5.00605 12.494 5.35605 13.157 5.71405C13.218 5.75205 13.287 5.79805 13.333 5.82805ZM14.338 6.34605C15.344 6.88705 16.395 7.41305 17.408 8.01505C18.666 8.76105 18.666 10.635 17.408 11.39C16.433 11.976 15.405 12.48 14.399 13.012C14.346 13.042 14.239 13.028 14.201 12.99C13.111 11.908 12.03 10.818 10.941 9.72905C10.933 9.71405 10.933 9.72105 10.941 9.72905C12.068 8.60905 13.181 7.49705 14.338 6.34605Z" fill="#757982"/>
</svg>
