<svg width="19" height="17" viewBox="0 0 19 17" fill="none" xmlns="http://www.w3.org/2000/svg">
<path d="M10.8028 16.3954C10.5686 16.3954 10.3524 16.3038 10.1722 16.1389C9.82992 15.7908 9.82992 15.2229 10.1722 14.8749L16.0454 8.95786C16.8381 8.15182 17.2525 7.08932 17.2525 5.95354C17.2525 4.83608 16.8201 3.7919 16.0454 3.02251C14.478 1.42876 11.7036 1.42876 10.1542 3.02251L2.49746 10.8081C2.15516 11.1561 1.59667 11.1561 1.25437 10.8081C0.912071 10.46 0.912071 9.89211 1.25437 9.54405L8.91111 1.75849C10.0281 0.622718 11.5054 -0.00012207 13.0908 -0.00012207C14.6762 -0.00012207 16.1715 0.622718 17.2705 1.75849C18.3694 2.85763 18.982 4.34147 19 5.95354C19 7.58393 18.4055 9.10441 17.2705 10.2402L11.3973 16.1755C11.2532 16.3038 11.037 16.3954 10.8028 16.3954Z" fill="#333333"/>
<path d="M4.29904 16.9999C4.28102 16.9999 4.28102 16.9999 4.26301 16.9999C3.10999 16.9816 2.04706 16.5236 1.25437 15.6992C-0.42111 13.9956 -0.421114 11.2294 1.27238 9.52574C1.61468 9.17768 2.17317 9.17768 2.51548 9.52574C2.85778 9.8738 2.85778 10.4417 2.51548 10.7898C1.5246 11.7973 1.5246 13.446 2.51548 14.4535C2.98389 14.9482 3.61444 15.2046 4.28103 15.2229C5.00166 15.2413 5.63222 14.9482 6.11865 14.4535L13.1268 7.32747C13.4691 6.97941 14.0276 6.97941 14.3699 7.32747C14.7122 7.67553 14.7122 8.24342 14.3699 8.59148L7.36174 15.7176C6.53301 16.5419 5.45206 16.9999 4.29904 16.9999Z" fill="#333333"/>
<path d="M7.95626 9.63565C7.74007 9.63565 7.50587 9.54406 7.34373 9.37919C7.00143 9.03113 7.00143 8.46323 7.34373 8.11518L10.6046 4.79945C11.6135 3.77358 13.361 3.77358 14.3699 4.79945C14.8563 5.25742 15.1266 5.9169 15.1446 6.63134C15.1626 7.3641 14.8744 8.06022 14.3699 8.57315C14.0276 8.92121 13.4691 8.92121 13.1268 8.57315C12.7845 8.22509 12.7845 7.65721 13.1268 7.30915C13.307 7.14428 13.3971 6.8878 13.3971 6.64966C13.3971 6.41151 13.307 6.21 13.1448 6.06345C12.7665 5.67875 12.172 5.69707 11.8477 6.04513L8.56881 9.37919C8.40667 9.54406 8.17245 9.63565 7.95626 9.63565Z" fill="#333333"/>
</svg>
